<svg width="21" height="21" viewBox="0 0 21 21" fill="none" xmlns="http://www.w3.org/2000/svg">
<g id="Group">
<path id="Vector" d="M10.6148 11.2418C10.5483 11.2323 10.4628 11.2323 10.3868 11.2418C8.71479 11.1848 7.38477 9.81681 7.38477 8.13529C7.38477 6.41579 8.77179 5.01929 10.5008 5.01929C12.2203 5.01929 13.6168 6.41579 13.6168 8.13529C13.6073 9.81681 12.2868 11.1848 10.6148 11.2418Z" stroke="#292D32" stroke-width="1.5" stroke-linecap="round" stroke-linejoin="round"/>
<path id="Vector_2" d="M16.9036 17.5104C15.2126 19.0589 12.9706 19.9994 10.5006 19.9994C8.03066 19.9994 5.78866 19.0589 4.09766 17.5104C4.19266 16.6174 4.76266 15.7434 5.77916 15.0594C8.38216 13.3304 12.6381 13.3304 15.2221 15.0594C16.2386 15.7434 16.8086 16.6174 16.9036 17.5104Z" stroke="#292D32" stroke-width="1.5" stroke-linecap="round" stroke-linejoin="round"/>
<path id="Vector_3" d="M10.5 20C15.7467 20 20 15.7467 20 10.5C20 5.25329 15.7467 1 10.5 1C5.25329 1 1 5.25329 1 10.5C1 15.7467 5.25329 20 10.5 20Z" stroke="#292D32" stroke-width="1.5" stroke-linecap="round" stroke-linejoin="round"/>
</g>
</svg>
