<svg width="40" height="40" viewBox="0 0 40 40" fill="none" xmlns="http://www.w3.org/2000/svg">
<g id="Objects">
<path id="Vector" d="M36.8565 16.1505C36.0867 12.8708 32.2374 8.90779 29.0881 8.16986C27.7723 7.85555 26.5966 8.1152 25.6728 8.8258C22.9853 7.00829 20.2698 6.98096 19.598 7.00829C18.8281 6.9673 16.0567 7.00829 13.3552 8.83947C12.4314 8.1152 11.2417 7.85555 9.91193 8.16986C6.76256 8.92146 2.92733 12.8708 2.14348 16.1505C1.73757 17.886 2.26946 19.0749 2.78736 19.7582C3.87914 21.2067 5.74076 21.6303 6.58059 21.7533C6.09069 24.1994 6.14668 26.5089 7.46242 28.4767C9.26805 31.1962 13.0893 32.672 19.262 33H19.8779C25.9667 32.672 29.8019 31.1962 31.5936 28.4767C32.9093 26.4952 32.9793 24.1858 32.4754 21.7397C33.3292 21.603 35.1489 21.1657 36.2126 19.7445C36.7305 19.0612 37.2624 17.8723 36.8565 16.1368V16.1505ZM14.335 17.0797V15.9592C14.335 15.2076 14.9649 14.5926 15.7348 14.5926C16.5046 14.5926 17.1345 15.2076 17.1345 15.9592V17.0797C17.1345 17.8313 16.5046 18.4463 15.7348 18.4463C14.9649 18.4463 14.335 17.8313 14.335 17.0797ZM22.3274 23.5435L20.9277 25.0467V29.8433C20.9277 30.5949 20.2978 31.2098 19.528 31.2098C18.7581 31.2098 18.1283 30.5949 18.1283 29.8433V25.0467L16.7286 23.5572C15.9027 22.6826 16.5466 21.2614 17.7643 21.2614H21.3056C22.5234 21.2614 23.1533 22.6689 22.3414 23.5572L22.3274 23.5435ZM25.0289 17.0797C25.0289 17.8313 24.399 18.4463 23.6292 18.4463C22.8593 18.4463 22.2295 17.8313 22.2295 17.0797V15.9592C22.2295 15.2076 22.8593 14.5926 23.6292 14.5926C24.399 14.5926 25.0289 15.2076 25.0289 15.9592V17.0797Z" fill="white"/>
</g>
</svg>
