<svg width="40" height="40" viewBox="0 0 40 40" fill="none" xmlns="http://www.w3.org/2000/svg">
<g id="Frame 8681">
<g id="Group 8688">
<path id="Vector" d="M19.3033 5.5C11.159 5.5 4.5625 12.1006 4.5625 20.25C4.5625 28.3994 11.159 35 19.3033 35H28.6821C30.2483 35 31.0222 35 31.6487 34.7603C32.6437 34.3916 33.436 33.5987 33.823 32.5847C34.0625 31.9578 34.0625 31.1834 34.0625 29.6162V20.2316C34.0441 12.1006 27.4476 5.5 19.3033 5.5ZM24.8311 27.625H19.3033C18.2899 27.625 17.4607 26.7953 17.4607 25.7812C17.4607 24.7672 18.2899 23.9375 19.3033 23.9375H24.8311C25.8445 23.9375 26.6737 24.7672 26.6737 25.7812C26.6737 26.7953 25.8445 27.625 24.8311 27.625ZM24.8311 20.25H13.7755C12.7621 20.25 11.9329 19.4203 11.9329 18.4062C11.9329 17.3922 12.7621 16.5625 13.7755 16.5625H24.8311C25.8445 16.5625 26.6737 17.3922 26.6737 18.4062C26.6737 19.4203 25.8445 20.25 24.8311 20.25Z" fill="white"/>
</g>
</g>
</svg>
